<?xml version="1.0" encoding="UTF-8"?>
<svg version="1.1" viewBox="0 0 2048 1117" width="2816" height="1536" xmlns="http://www.w3.org/2000/svg">
<path transform="translate(0)" d="m0 0h2048v1117h-2048z" fill="#FCFCFC"/>
<path transform="translate(577,547)" d="m0 0 2 1-1 140-14 9-48 30-21 13-19 12-21 13-30 19h-5l-22-14-72-45-26-16-19-12-14-9v-81l10 2h14l13-4 11-6 8-8 5-7 5 2 23 14 24 15 23 14 19 12 14-8 21-13 84-51 21-13z" fill="#06535C"/>
<path transform="translate(703,334)" d="m0 0h5l-21 124-2 4-30-30-7-8-4 2-23 23-4 5-8 7-12 13-39 39v9l-4 13-6 8-9 6-9 3h-12l-11-4-8-7-5-6-3-7-1-12-4-2-12-9-21-16-13-10-5 1-7 2h-11l-12-4-15 13-10 8-16 13-11 9-17 14-16 13-3 3v14l-3 9-7 9-10 7-7 2h-14l-10-4-7-5-7-10-3-11v-9l3-10 6-9 11-8 6-2h20l10-9 10-8 11-9 16-13 17-14 16-13 11-9h2l2-13 5-9 8-8 12-5h16l9 4 8 6 6 9 4 16 12 9 21 16 13 10 5 3 7-3 15-1 87-87-6-7-14-15-16-16v-2l105-19z" fill="#8BC8B4"/>
<path transform="translate(328,584)" d="m0 0 5 2 23 14 24 15 23 14 19 12 1 1v142l-4-1-26-16-19-12-48-30-26-16-19-12-14-9v-81l10 2h14l13-4 11-6 8-8z" fill="#0D6B73"/>
<path transform="translate(408,498)" d="m0 0 17 1 13-1 11 9 20 15 5 5 4 13 6 10 5 6 12 8 3 1v2l-28 17-52 32-5-1-26-16-48-30-10-6v-5l11-10 14-11 17-14 22-18z" fill="#0D6B73"/>
<path transform="translate(1358,552)" d="m0 0h11l16 4 11 7 7 7 6 12 2 7v17l-4 13-6 9-10 9-12 5-10 2h-12l-13-3-11-6-10-10-6-12-2-11v-8l4-16 6-9 7-7 10-6 9-3z" fill="#06535C"/>
<path transform="translate(766,552)" d="m0 0h11l11 2 14 7 10 10 6 12 2 10v10l-3 12-5 10-10 10-14 7-11 2h-11l-14-3-12-7-7-7-6-10-3-11v-16l4-13 7-10 8-7 10-5z" fill="#06535C"/>
<path transform="translate(1699,552)" d="m0 0h20l12 3 10 6 7 9 3 7 1 5v61h-24l-1-9-7 6-10 4h-19l-9-3-9-7-4-7-2-7v-7l3-10 5-5 7-5 10-3 9-1h25l-4-10-6-4-4-1h-12l-10 3-8 4h-2l-9-16 2-4 13-6z" fill="#8BC8B4"/>
<path transform="translate(1568,552)" d="m0 0h11l13 3 12 7 8 9 5 11 2 8v14l-1 1h-65l3 8 8 7 6 2h14l10-4 4-3 4 2 11 11-2 4-8 6-9 4-12 2h-11l-12-2-14-7-9-8-6-10-3-10v-18l4-12 6-9 7-7 14-7z" fill="#06535C"/>
<path transform="translate(1043,552)" d="m0 0h10l13 3 10 6 8 8 7 14 2 10v10l-1 2h-65l3 8 7 6 7 3h15l12-6h4l12 12-2 4-10 7-12 4-7 1h-11l-14-3-12-6-7-6-7-11-3-8-1-6v-12l3-12 5-9 8-9 10-6 9-3z" fill="#06535C"/>
<path transform="translate(1474,552)" d="m0 0 13 1 9 3 9 7 6 10 2 7 1 8v54h-26l-1-54-4-8-3-3-11-2-8 2-5 3-5 10-1 52h-26v-88h25l1 9 7-6 10-4z" fill="#06535C"/>
<path transform="translate(948,552)" d="m0 0h8l12 3 9 6 6 7 4 9 1 6v59h-26v-33l-1-22-4-8-5-3-9-1-10 3-6 7-2 7-1 50h-25v-88h24l1 9 7-6 11-4z" fill="#06535C"/>
<path transform="translate(1202,552)" d="m0 0h10l13 2 11 4 3 2-1 5-7 13-10-4-13-2-10 1-5 3-1 1 1 7 8 3 22 4 9 4 6 4 4 6 1 3v14l-5 10-8 6-10 4-12 2h-12l-13-2-15-5-4-2 3-9 5-10 6 2 11 4 5 1h17l6-3 1-5-3-4-14-3-17-4-10-5-5-6-2-5v-13l4-9 9-8 10-4z" fill="#06535C"/>
<path transform="translate(675,552)" d="m0 0h11l13 3 9 5 8 8 3 5v2l-17 10-4-2-8-7-6-2h-7l-8 3-7 6-3 7-1 10 3 10 4 6 6 4 3 1h13l6-3 7-8 16 8 3 2-2 6-7 8-9 6-9 3-7 1h-10l-14-3-11-6-8-7-6-10-3-9-1-5v-12l3-12 6-10 4-5 10-7 13-5z" fill="#06535C"/>
<path transform="translate(1260,533)" d="m0 0h25v23h22v19h-22l1 41 3 5 3 1h8l7-2 6 16v3l-10 4-7 1h-10l-9-2-8-5-6-7-3-8v-47h-14v-19l13-1z" fill="#06535C"/>
<path transform="translate(876,553)" d="m0 0h11v23l-13 1-8 4-5 8-1 3-1 50h-26v-88h24l1 10 8-7z" fill="#06535C"/>
<path transform="translate(1148,553)" d="m0 0h12v23l-13 1-8 4-5 6-2 7-1 48h-25v-88h23v11h2l2-4 9-6z" fill="#06535C"/>
<path transform="translate(1771,553)" d="m0 0h25v90h-25l-1-1v-88z" fill="#8BC8B4"/>
<path transform="translate(1361,573)" d="m0 0 9 1 8 4 6 9 2 8-1 11-4 8-8 7-8 2-9-1-8-5-6-9-1-4v-12l4-10 7-6z" fill="#F7FAF9"/>
<path transform="translate(769,573)" d="m0 0 10 1 8 5 4 5 3 7v13l-3 8-5 6-8 4h-13l-7-4-6-7-2-5-1-10 2-9 6-9 7-4z" fill="#F7FAF9"/>
<path transform="translate(1639,611)" d="m0 0h7l8 4 4 6 1 3v8l-3 6-6 5-2 1h-11l-6-4-4-6-1-8 3-8 7-6z" fill="#8BC8B4"/>
<path transform="translate(1780,513)" d="m0 0 10 1 6 4 3 5v9l-3 5-5 4-2 1h-12l-6-4-4-8 1-8 5-6z" fill="#8BC8B4"/>
<path transform="translate(1041,572)" d="m0 0h14l8 5 5 8v5h-42l3-9 4-5z" fill="#EEF6F3"/>
<path transform="translate(1567,572)" d="m0 0h13l8 4 6 9v5h-42l3-9 5-5 4-3z" fill="#EEF6F3"/>
<path transform="translate(1703,605)" d="m0 0h23v10l-4 6-7 4-4 1h-8l-7-3-3-4v-7l4-5z" fill="#FDFDFD"/>
</svg>
